<svg width="34" height="34" viewBox="0 0 34 34" fill="none" xmlns="http://www.w3.org/2000/svg">
<path fill-rule="evenodd" clip-rule="evenodd" d="M9.4068 20.4337C9.08844 20.681 8.99558 21.1358 9.20576 21.4998C9.43504 21.897 9.93815 22.0358 10.3295 21.8098L22.7844 14.6189L20.9108 21.7642L20.8885 21.8844C20.8444 22.2846 21.0971 22.6714 21.4958 22.7823C21.9345 22.9043 22.3836 22.6462 22.4991 22.2059L24.8756 13.1453C24.8905 13.0927 24.9002 13.0385 24.9045 12.9836C24.9355 12.5913 24.6834 12.2175 24.2914 12.1102L15.241 9.63459L15.1213 9.61111C14.7232 9.56325 14.3436 9.81456 14.2402 10.2153C14.1266 10.6562 14.3904 11.1109 14.8295 11.231L21.9552 13.1801L9.49916 20.3717L9.4068 20.4337Z" fill="#1D01DF"/>
</svg>
