<svg width="112" height="32" viewBox="0 0 112 32" fill="none" xmlns="http://www.w3.org/2000/svg">
<path d="M38.1 15.38H36.52V13.6H38.1V11.88C38.1 11.04 38.32 10.3867 38.76 9.92C39.2 9.44 39.86 9.2 40.74 9.2H42.46V10.98H40.28V13.6H46.46V24H44.28V15.38H40.28V24H38.1V15.38ZM45.38 11.74C44.9267 11.74 44.5933 11.6333 44.38 11.42C44.18 11.2067 44.08 10.9333 44.08 10.6V10.26C44.08 9.92667 44.18 9.65333 44.38 9.44C44.5933 9.22667 44.9267 9.12 45.38 9.12C45.8333 9.12 46.16 9.22667 46.36 9.44C46.56 9.65333 46.66 9.92667 46.66 10.26V10.6C46.66 10.9333 46.56 11.2067 46.36 11.42C46.16 11.6333 45.8333 11.74 45.38 11.74ZM49.5717 24V13.6H51.7517V15.32H51.8517C52.0784 14.76 52.4184 14.2933 52.8717 13.92C53.3384 13.5467 53.9717 13.36 54.7717 13.36C55.8384 13.36 56.6651 13.7133 57.2517 14.42C57.8517 15.1133 58.1517 16.1067 58.1517 17.4V24H55.9717V17.68C55.9717 16.0533 55.3184 15.24 54.0117 15.24C53.7317 15.24 53.4517 15.28 53.1717 15.36C52.9051 15.4267 52.6651 15.5333 52.4517 15.68C52.2384 15.8267 52.0651 16.0133 51.9317 16.24C51.8117 16.4667 51.7517 16.7333 51.7517 17.04V24H49.5717ZM63.277 24L59.737 13.6H61.897L63.477 18.34L64.537 21.98H64.657L65.717 18.34L67.337 13.6H69.417L65.837 24H63.277ZM72.3514 11.74C71.8981 11.74 71.5647 11.6333 71.3514 11.42C71.1514 11.2067 71.0514 10.9333 71.0514 10.6V10.26C71.0514 9.92667 71.1514 9.65333 71.3514 9.44C71.5647 9.22667 71.8981 9.12 72.3514 9.12C72.8047 9.12 73.1314 9.22667 73.3314 9.44C73.5314 9.65333 73.6314 9.92667 73.6314 10.26V10.6C73.6314 10.9333 73.5314 11.2067 73.3314 11.42C73.1314 11.6333 72.8047 11.74 72.3514 11.74ZM71.2514 13.6H73.4314V24H71.2514V13.6ZM79.8444 24.24C78.8577 24.24 78.031 24.0667 77.3644 23.72C76.6977 23.3733 76.1177 22.8933 75.6244 22.28L77.0244 21C77.411 21.4667 77.8377 21.8333 78.3044 22.1C78.7844 22.3533 79.3377 22.48 79.9644 22.48C80.6044 22.48 81.0777 22.36 81.3844 22.12C81.7044 21.8667 81.8644 21.52 81.8644 21.08C81.8644 20.7467 81.751 20.4667 81.5244 20.24C81.311 20 80.931 19.8467 80.3844 19.78L79.4244 19.66C78.3577 19.5267 77.5177 19.22 76.9044 18.74C76.3044 18.2467 76.0044 17.52 76.0044 16.56C76.0044 16.0533 76.0977 15.6067 76.2844 15.22C76.471 14.82 76.731 14.4867 77.0644 14.22C77.411 13.94 77.8177 13.7267 78.2844 13.58C78.7644 13.4333 79.291 13.36 79.8644 13.36C80.7977 13.36 81.5577 13.5067 82.1444 13.8C82.7444 14.0933 83.2777 14.5 83.7444 15.02L82.4044 16.3C82.1377 15.98 81.7844 15.7067 81.3444 15.48C80.9177 15.24 80.4244 15.12 79.8644 15.12C79.2644 15.12 78.8177 15.24 78.5244 15.48C78.2444 15.72 78.1044 16.0333 78.1044 16.42C78.1044 16.82 78.231 17.12 78.4844 17.32C78.7377 17.52 79.1444 17.6667 79.7044 17.76L80.6644 17.88C81.811 18.0533 82.6444 18.3933 83.1644 18.9C83.6977 19.3933 83.9644 20.06 83.9644 20.9C83.9644 21.4067 83.8644 21.8667 83.6644 22.28C83.4777 22.68 83.2044 23.0267 82.8444 23.32C82.4844 23.6133 82.051 23.84 81.5444 24C81.0377 24.16 80.471 24.24 79.8444 24.24ZM90.5072 24.24C89.7605 24.24 89.0939 24.1133 88.5072 23.86C87.9205 23.6067 87.4205 23.2467 87.0072 22.78C86.5939 22.3 86.2739 21.7267 86.0472 21.06C85.8339 20.38 85.7272 19.6267 85.7272 18.8C85.7272 17.9733 85.8339 17.2267 86.0472 16.56C86.2739 15.88 86.5939 15.3067 87.0072 14.84C87.4205 14.36 87.9205 13.9933 88.5072 13.74C89.0939 13.4867 89.7605 13.36 90.5072 13.36C91.2672 13.36 91.9339 13.4933 92.5072 13.76C93.0939 14.0267 93.5805 14.4 93.9672 14.88C94.3539 15.3467 94.6405 15.8933 94.8272 16.52C95.0272 17.1467 95.1272 17.82 95.1272 18.54V19.36H87.9872V19.7C87.9872 20.5 88.2205 21.16 88.6872 21.68C89.1672 22.1867 89.8472 22.44 90.7272 22.44C91.3672 22.44 91.9072 22.3 92.3472 22.02C92.7872 21.74 93.1605 21.36 93.4672 20.88L94.7472 22.14C94.3605 22.78 93.8005 23.2933 93.0672 23.68C92.3339 24.0533 91.4805 24.24 90.5072 24.24ZM90.5072 15.06C90.1339 15.06 89.7872 15.1267 89.4672 15.26C89.1605 15.3933 88.8939 15.58 88.6672 15.82C88.4539 16.06 88.2872 16.3467 88.1672 16.68C88.0472 17.0133 87.9872 17.38 87.9872 17.78V17.92H92.8272V17.72C92.8272 16.92 92.6205 16.28 92.2072 15.8C91.7939 15.3067 91.2272 15.06 90.5072 15.06ZM97.5405 24V13.6H99.7205V15.6H99.8205C99.9671 15.0667 100.274 14.6 100.74 14.2C101.207 13.8 101.854 13.6 102.68 13.6H103.26V15.7H102.4C101.534 15.7 100.867 15.84 100.4 16.12C99.9471 16.4 99.7205 16.8133 99.7205 17.36V24H97.5405ZM105.197 24V13.6H107.377V15.6H107.477C107.623 15.0667 107.93 14.6 108.397 14.2C108.863 13.8 109.51 13.6 110.337 13.6H110.917V15.7H110.057C109.19 15.7 108.523 15.84 108.057 16.12C107.603 16.4 107.377 16.8133 107.377 17.36V24H105.197Z" fill="#1D01DF"/>
<circle cx="16" cy="16" r="14" fill="#1D01DF"/>
<path d="M20.3052 17.7654L17.7752 15.144L16.5922 16.2808C16.3347 16.5556 15.6803 16.9367 15.6727 17.3408C15.6656 17.7184 16.2604 18.1302 16.5295 18.4072L18.0301 19.9515L20.3052 17.7654Z" fill="#EAEBED"/>
<path d="M19.0153 11.6817L17.6734 10.2882L16.4767 9.05823L13.754 11.6929C13.4966 11.9677 13.3216 12.3408 13.314 12.7449C13.3068 13.1225 13.4222 13.5423 13.6914 13.8194L15.192 15.3637L19.0153 11.6817Z" fill="#EAEBED"/>
<path d="M12.6847 12.7345L13.826 11.6379C13.5474 11.9159 13.355 12.3059 13.347 12.7301C13.3399 13.1077 13.4552 13.5275 13.7244 13.8045L20.8303 21.1478L19.487 22.4476L18.224 23.6697L11.8867 17.1206C10.884 16.0817 10.9165 14.428 11.9593 13.4293L12.6847 12.7345Z" fill="white"/>
<g clip-path="url(#clip0)">
<path d="M18.1421 17.1579C18.1421 17.2448 18.1766 17.3281 18.238 17.3896C18.2995 17.451 18.3828 17.4855 18.4697 17.4855C18.5566 17.4855 18.6399 17.451 18.7014 17.3896C18.7628 17.3281 18.7973 17.2448 18.7973 17.1579" stroke="#1D01DF" stroke-width="0.0655251" stroke-linecap="round" stroke-linejoin="round"/>
<path d="M18.47 17.4855C18.47 17.3986 18.5045 17.3153 18.5659 17.2539C18.6274 17.1924 18.7107 17.1579 18.7976 17.1579" stroke="#1D01DF" stroke-width="0.0655251" stroke-linecap="round" stroke-linejoin="round"/>
<path d="M18.1421 17.1579C18.1851 17.1579 18.2277 17.1664 18.2675 17.1828C18.3072 17.1993 18.3433 17.2234 18.3738 17.2539C18.4042 17.2843 18.4283 17.3204 18.4448 17.3601C18.4612 17.3999 18.4697 17.4425 18.4697 17.4855" stroke="#1D01DF" stroke-width="0.0655251" stroke-linecap="round" stroke-linejoin="round"/>
<path d="M18.47 16.994C18.503 17.0255 18.5288 17.0638 18.5457 17.1062C18.5626 17.1486 18.5702 17.1941 18.5679 17.2397" stroke="#1D01DF" stroke-width="0.0655251" stroke-linecap="round" stroke-linejoin="round"/>
<path d="M18.372 17.2397C18.3697 17.1941 18.3773 17.1486 18.3942 17.1062C18.4111 17.0638 18.4369 17.0255 18.4699 16.994" stroke="#1D01DF" stroke-width="0.0655251" stroke-linecap="round" stroke-linejoin="round"/>
</g>
<defs>
<clipPath id="clip0">
<rect width="0.786301" height="0.786301" fill="white" transform="translate(18.0767 16.863)"/>
</clipPath>
</defs>
</svg>
