<svg width="34" height="34" viewBox="0 0 34 34" fill="none" xmlns="http://www.w3.org/2000/svg">
<path d="M17 0C5.29647 0 0 4.40218 0 17C0 28.7035 4.40218 34 17 34C28.7035 34 34 29.5978 34 17C34 5.29647 29.5978 0 17 0Z" fill="#F4F2FD"/>
<path d="M16.1783 23.992L17 24.0834C16.5849 20.7606 13.945 18.156 10.6158 17.7856L9.91666 17.7084L9.93154 17.8309C10.3388 21.0821 12.9214 23.63 16.1783 23.992ZM24.0685 17.8309L24.0833 17.7084L23.3842 17.7856C20.055 18.156 17.4151 20.7606 17 24.0834L17.8217 23.992C21.0786 23.63 23.6612 21.0821 24.0685 17.8309ZM21.2946 12.3959C20.8059 11.5494 19.7221 11.259 18.8757 11.7477C18.8317 11.7725 18.797 11.8051 18.7567 11.8334C18.7602 11.7846 18.7708 11.7371 18.7708 11.6875C18.7708 10.7093 17.9782 9.91669 17 9.91669C16.0218 9.91669 15.2292 10.7093 15.2292 11.6875C15.2292 11.7371 15.2398 11.7846 15.244 11.8334C15.2037 11.8051 15.1682 11.7725 15.125 11.7477C14.2779 11.259 13.1948 11.5494 12.7061 12.3959C12.2173 13.2423 12.5077 14.3261 13.3542 14.8148C13.3974 14.8396 13.4435 14.8545 13.4874 14.875C13.4435 14.8956 13.3974 14.9104 13.3542 14.9352C12.5077 15.424 12.2173 16.5077 12.7061 17.3542C13.1948 18.2006 14.2786 18.4911 15.125 18.0023C15.169 17.9775 15.2037 17.9449 15.244 17.9166C15.2398 17.9655 15.2292 18.0129 15.2292 18.0625C15.2292 19.0407 16.0218 19.8334 17 19.8334C17.9782 19.8334 18.7708 19.0407 18.7708 18.0625C18.7708 18.0129 18.7602 17.9655 18.756 17.9166C18.7963 17.9449 18.831 17.9775 18.875 18.0023C19.7214 18.4911 20.8052 18.2006 21.2939 17.3542C21.7827 16.5077 21.4922 15.424 20.6458 14.9352C20.6026 14.9104 20.5565 14.8956 20.5126 14.875C20.5572 14.8545 20.6026 14.8396 20.6458 14.8148C21.493 14.3261 21.7834 13.2423 21.2946 12.3959ZM17 17C15.8263 17 14.875 16.0487 14.875 14.875C14.875 13.7013 15.8263 12.75 17 12.75C18.1737 12.75 19.125 13.7013 19.125 14.875C19.125 16.0487 18.1737 17 17 17Z" fill="#1D01DF"/>
</svg>
