<svg width="34" height="34" viewBox="0 0 34 34" fill="none" xmlns="http://www.w3.org/2000/svg">
<path d="M17 0C5.29647 0 0 4.40218 0 17C0 28.7035 4.40218 34 17 34C28.7035 34 34 29.5978 34 17C34 5.29647 29.5978 0 17 0Z" fill="#F4F2FD"/>
<path d="M17 12.75C13.4796 12.75 9.91669 13.8451 9.91669 15.9375V18.7708C9.91669 20.8632 13.4796 21.9583 17 21.9583C20.5204 21.9583 24.0834 20.8632 24.0834 18.7708V15.9375C24.0834 13.8451 20.5204 12.75 17 12.75ZM11.3334 18.7708V17.923C11.7414 18.1603 12.2195 18.3642 12.75 18.5321V19.8645C11.8207 19.5004 11.3334 19.0669 11.3334 18.7708ZM19.8334 18.8757V20.2718C19.2192 20.3986 18.5109 20.4914 17.7084 20.5254V19.1087C18.4365 19.079 19.1541 18.9996 19.8334 18.8757ZM16.2917 20.5261C15.4891 20.4921 14.7808 20.3993 14.1667 20.2725V18.8764C14.846 18.9996 15.5635 19.0797 16.2917 19.1101V20.5261ZM21.25 19.8645V18.5321C21.7806 18.3642 22.2587 18.161 22.6667 17.923V18.7708C22.6667 19.0669 22.1801 19.5004 21.25 19.8645ZM17 17.7083C13.333 17.7083 11.3334 16.5389 11.3334 15.9375C11.3334 15.3361 13.333 14.1667 17 14.1667C20.6671 14.1667 22.6667 15.3361 22.6667 15.9375C22.6667 16.5389 20.6671 17.7083 17 17.7083Z" fill="#1D01DF"/>
</svg>
