<svg width="110" height="29" viewBox="0 0 110 29" fill="none" xmlns="http://www.w3.org/2000/svg">
<path d="M36.1 13.38H34.52V11.6H36.1V9.88C36.1 9.04 36.32 8.38667 36.76 7.92C37.2 7.44 37.86 7.2 38.74 7.2H40.46V8.98H38.28V11.6H44.46V22H42.28V13.38H38.28V22H36.1V13.38ZM43.38 9.74C42.9267 9.74 42.5933 9.63333 42.38 9.42C42.18 9.20667 42.08 8.93333 42.08 8.6V8.26C42.08 7.92667 42.18 7.65333 42.38 7.44C42.5933 7.22667 42.9267 7.12 43.38 7.12C43.8333 7.12 44.16 7.22667 44.36 7.44C44.56 7.65333 44.66 7.92667 44.66 8.26V8.6C44.66 8.93333 44.56 9.20667 44.36 9.42C44.16 9.63333 43.8333 9.74 43.38 9.74ZM47.5717 22V11.6H49.7517V13.32H49.8517C50.0784 12.76 50.4184 12.2933 50.8717 11.92C51.3384 11.5467 51.9717 11.36 52.7717 11.36C53.8384 11.36 54.6651 11.7133 55.2517 12.42C55.8517 13.1133 56.1517 14.1067 56.1517 15.4V22H53.9717V15.68C53.9717 14.0533 53.3184 13.24 52.0117 13.24C51.7317 13.24 51.4517 13.28 51.1717 13.36C50.9051 13.4267 50.6651 13.5333 50.4517 13.68C50.2384 13.8267 50.0651 14.0133 49.9317 14.24C49.8117 14.4667 49.7517 14.7333 49.7517 15.04V22H47.5717ZM61.277 22L57.737 11.6H59.897L61.477 16.34L62.537 19.98H62.657L63.717 16.34L65.337 11.6H67.417L63.837 22H61.277ZM70.3514 9.74C69.8981 9.74 69.5647 9.63333 69.3514 9.42C69.1514 9.20667 69.0514 8.93333 69.0514 8.6V8.26C69.0514 7.92667 69.1514 7.65333 69.3514 7.44C69.5647 7.22667 69.8981 7.12 70.3514 7.12C70.8047 7.12 71.1314 7.22667 71.3314 7.44C71.5314 7.65333 71.6314 7.92667 71.6314 8.26V8.6C71.6314 8.93333 71.5314 9.20667 71.3314 9.42C71.1314 9.63333 70.8047 9.74 70.3514 9.74ZM69.2514 11.6H71.4314V22H69.2514V11.6ZM77.8444 22.24C76.8577 22.24 76.031 22.0667 75.3644 21.72C74.6977 21.3733 74.1177 20.8933 73.6244 20.28L75.0244 19C75.411 19.4667 75.8377 19.8333 76.3044 20.1C76.7844 20.3533 77.3377 20.48 77.9644 20.48C78.6044 20.48 79.0777 20.36 79.3844 20.12C79.7044 19.8667 79.8644 19.52 79.8644 19.08C79.8644 18.7467 79.751 18.4667 79.5244 18.24C79.311 18 78.931 17.8467 78.3844 17.78L77.4244 17.66C76.3577 17.5267 75.5177 17.22 74.9044 16.74C74.3044 16.2467 74.0044 15.52 74.0044 14.56C74.0044 14.0533 74.0977 13.6067 74.2844 13.22C74.471 12.82 74.731 12.4867 75.0644 12.22C75.411 11.94 75.8177 11.7267 76.2844 11.58C76.7644 11.4333 77.291 11.36 77.8644 11.36C78.7977 11.36 79.5577 11.5067 80.1444 11.8C80.7444 12.0933 81.2777 12.5 81.7444 13.02L80.4044 14.3C80.1377 13.98 79.7844 13.7067 79.3444 13.48C78.9177 13.24 78.4244 13.12 77.8644 13.12C77.2644 13.12 76.8177 13.24 76.5244 13.48C76.2444 13.72 76.1044 14.0333 76.1044 14.42C76.1044 14.82 76.231 15.12 76.4844 15.32C76.7377 15.52 77.1444 15.6667 77.7044 15.76L78.6644 15.88C79.811 16.0533 80.6444 16.3933 81.1644 16.9C81.6977 17.3933 81.9644 18.06 81.9644 18.9C81.9644 19.4067 81.8644 19.8667 81.6644 20.28C81.4777 20.68 81.2044 21.0267 80.8444 21.32C80.4844 21.6133 80.051 21.84 79.5444 22C79.0377 22.16 78.471 22.24 77.8444 22.24ZM88.5072 22.24C87.7605 22.24 87.0939 22.1133 86.5072 21.86C85.9205 21.6067 85.4205 21.2467 85.0072 20.78C84.5939 20.3 84.2739 19.7267 84.0472 19.06C83.8339 18.38 83.7272 17.6267 83.7272 16.8C83.7272 15.9733 83.8339 15.2267 84.0472 14.56C84.2739 13.88 84.5939 13.3067 85.0072 12.84C85.4205 12.36 85.9205 11.9933 86.5072 11.74C87.0939 11.4867 87.7605 11.36 88.5072 11.36C89.2672 11.36 89.9339 11.4933 90.5072 11.76C91.0939 12.0267 91.5805 12.4 91.9672 12.88C92.3539 13.3467 92.6405 13.8933 92.8272 14.52C93.0272 15.1467 93.1272 15.82 93.1272 16.54V17.36H85.9872V17.7C85.9872 18.5 86.2205 19.16 86.6872 19.68C87.1672 20.1867 87.8472 20.44 88.7272 20.44C89.3672 20.44 89.9072 20.3 90.3472 20.02C90.7872 19.74 91.1605 19.36 91.4672 18.88L92.7472 20.14C92.3605 20.78 91.8005 21.2933 91.0672 21.68C90.3339 22.0533 89.4805 22.24 88.5072 22.24ZM88.5072 13.06C88.1339 13.06 87.7872 13.1267 87.4672 13.26C87.1605 13.3933 86.8939 13.58 86.6672 13.82C86.4539 14.06 86.2872 14.3467 86.1672 14.68C86.0472 15.0133 85.9872 15.38 85.9872 15.78V15.92H90.8272V15.72C90.8272 14.92 90.6205 14.28 90.2072 13.8C89.7939 13.3067 89.2272 13.06 88.5072 13.06ZM95.5405 22V11.6H97.7205V13.6H97.8205C97.9671 13.0667 98.2738 12.6 98.7405 12.2C99.2071 11.8 99.8538 11.6 100.68 11.6H101.26V13.7H100.4C99.5338 13.7 98.8671 13.84 98.4005 14.12C97.9471 14.4 97.7205 14.8133 97.7205 15.36V22H95.5405ZM103.197 22V11.6H105.377V13.6H105.477C105.623 13.0667 105.93 12.6 106.397 12.2C106.863 11.8 107.51 11.6 108.337 11.6H108.917V13.7H108.057C107.19 13.7 106.523 13.84 106.057 14.12C105.603 14.4 105.377 14.8133 105.377 15.36V22H103.197Z" fill="#1D01DF"/>
<path d="M8.75709 11.7704L11.4867 14.5L5.74291 20.2429L8.75709 23.2571L14.5 17.5133L17.2296 20.2429L11.4867 25.9867L14.5 29L20.2429 23.2571L23.2571 20.2429L29 14.5L25.9867 11.4867L20.2429 17.2296L17.5133 14.5L23.2571 8.75709L20.2429 5.74291L14.5 11.4867L11.7704 8.75709L17.5133 3.01328L14.5 0L8.75709 5.74291L5.74291 8.75709L0 14.5L3.01328 17.5133L8.75709 11.7704Z" fill="#1D01DF"/>
</svg>
