<svg width="34" height="34" viewBox="0 0 34 34" fill="none" xmlns="http://www.w3.org/2000/svg">
<path d="M17 0C5.29647 0 0 4.40218 0 17C0 28.7035 4.40218 34 17 34C28.7035 34 34 29.5978 34 17C34 5.29647 29.5978 0 17 0Z" fill="#F4F2FD"/>
<path d="M12.6264 23.5533H10.5014C10.1097 23.5533 9.79309 23.236 9.79309 22.845V17.1783C9.79309 16.7873 10.1097 16.47 10.5014 16.47H12.6264C13.0181 16.47 13.3348 16.7873 13.3348 17.1783V22.845C13.3348 23.236 13.0181 23.5533 12.6264 23.5533ZM17.5848 23.5533H15.4598C15.068 23.5533 14.7514 23.236 14.7514 22.845V10.8033C14.7514 10.4123 15.068 10.095 15.4598 10.095H17.5848C17.9765 10.095 18.2931 10.4123 18.2931 10.8033V22.845C18.2931 23.236 17.9765 23.5533 17.5848 23.5533ZM22.5431 23.5533H20.4181C20.0264 23.5533 19.7098 23.236 19.7098 22.845V15.0533C19.7098 14.6623 20.0264 14.345 20.4181 14.345H22.5431C22.9348 14.345 23.2514 14.6623 23.2514 15.0533V22.845C23.2514 23.236 22.9348 23.5533 22.5431 23.5533Z" fill="#1D01DF"/>
</svg>
